# xmcd
#
# Track frame offsets:
#	150
#	17930
#	45255
#	76595
#	98875
#	117582
#	132592
#	146387
#
# Disc length: 2097 seconds
#
# Revision: 5
# Processed by: cddbd v1.4b42PL1 Copyright (c) Steve Scherf et al.
# Submitted via: audiograbber 1.80
#
DISCID=62082f08
DTITLE=Praxis - Hohenlohe
DYEAR=1900
DGENRE=
TTITLE0=Baura Bua
TTITLE1=Hohenlohe
TTITLE2=Sätordäi Neit
TTITLE3=Mouschd Blues
TTITLE4=Messong
TTITLE5=Weidmanns Heil
TTITLE6=Kalle
TTITLE7=Eberbach
EXTD=
EXTT0=
EXTT1=
EXTT2=
EXTT3=
EXTT4=
EXTT5=
EXTT6=
EXTT7=
PLAYORDER=
